<?xml version="1.0" encoding="utf-8"?>
<!-- Generator: Adobe Illustrator 24.0.2, SVG Export Plug-In . SVG Version: 6.00 Build 0)  -->
<svg version="1.1" id="Layer_1" xmlns="http://www.w3.org/2000/svg" xmlns:xlink="http://www.w3.org/1999/xlink" x="0px" y="0px"
	 viewBox="0 0 36 36" style="enable-background:new 0 0 36 36;" xml:space="preserve">
<style type="text/css">
	.st0{fill:#606060;}
</style>
<path class="st0" d="M30.3,23.4v2.7H33v2.7h-2.7v2.7h-2.7v-2.7h-2.7v-2.7h2.7v-2.7L30.3,23.4L30.3,23.4z M21.7,4.4l1.4,4.1h5.8
	l1.4,1.4v9.6l-1.4,1.3l-1.4-1.4v-8.2h-6.4l-1.4-4.1h-6.2l-1.4,4.1H5.7v15h15l1.4,1.3l-1.4,1.4H4.4L3,27.6V9.8l1.4-1.4h5.8l1.4-4.1
	L21.7,4.4L21.7,4.4z M16.6,11.2c3.8,0,6.8,3.1,6.8,6.8c0,3.8-3.1,6.8-6.8,6.8S9.8,21.8,9.8,18C9.8,14.2,12.9,11.2,16.6,11.2z
	 M16.6,13.9c-2.3,0-4.1,1.8-4.1,4.1c0,2.3,1.8,4.1,4.1,4.1c2.3,0,4.1-1.8,4.1-4.1C20.7,15.8,18.9,13.9,16.6,13.9L16.6,13.9z"/>
</svg>
